<?xml version="1.0" encoding="utf-8" standalone="no"?>
<!DOCTYPE svg PUBLIC "-//W3C//DTD SVG 1.1//EN"
  "http://www.w3.org/Graphics/SVG/1.1/DTD/svg11.dtd">
<svg xmlns:xlink="http://www.w3.org/1999/xlink" width="576pt" height="432pt" viewBox="0 0 576 432" xmlns="http://www.w3.org/2000/svg" version="1.1">
 <metadata>
  <rdf:RDF xmlns:dc="http://purl.org/dc/elements/1.1/" xmlns:cc="http://creativecommons.org/ns#" xmlns:rdf="http://www.w3.org/1999/02/22-rdf-syntax-ns#">
   <cc:Work>
    <dc:type rdf:resource="http://purl.org/dc/dcmitype/StillImage"/>
    <dc:date>2023-11-07T00:56:00.366332</dc:date>
    <dc:format>image/svg+xml</dc:format>
    <dc:creator>
     <cc:Agent>
      <dc:title>Matplotlib v3.5.2, https://matplotlib.org/</dc:title>
     </cc:Agent>
    </dc:creator>
   </cc:Work>
  </rdf:RDF>
 </metadata>
 <defs>
  <style type="text/css">*{stroke-linejoin: round; stroke-linecap: butt}</style>
 </defs>
 <g id="figure_1">
  <g id="patch_1">
   <path d="M 0 432 
L 576 432 
L 576 0 
L 0 0 
z
" style="fill: #ffffff"/>
  </g>
  <g id="axes_1">
   <g id="patch_2">
    <path d="M 72 384.48 
L 518.4 384.48 
L 518.4 51.84 
L 72 51.84 
z
" style="fill: #ffffff"/>
   </g>
   <g id="line2d_1">
    <path d="M 72 128.07 
L 78.48457 123.376989 
L 84.969141 118.956796 
L 91.508203 114.767986 
L 98.047266 110.841395 
L 104.64082 107.140397 
L 111.288867 103.664454 
L 117.936914 100.43856 
L 124.639453 97.432989 
L 131.396484 94.647688 
L 138.153516 92.102345 
L 144.965039 89.773929 
L 151.831055 87.66307 
L 158.69707 85.784637 
L 165.617578 84.12217 
L 172.538086 82.687593 
L 179.513086 81.468814 
L 186.488086 80.474973 
L 193.517578 79.698335 
L 200.54707 79.145394 
L 207.576562 78.814491 
L 214.660547 78.704465 
L 221.744531 78.818053 
L 228.828516 79.155072 
L 235.9125 79.715841 
L 242.996484 80.501187 
L 250.025977 81.503798 
L 257.055469 82.730652 
L 264.084961 84.184035 
L 271.059961 85.852792 
L 278.034961 87.750504 
L 284.955469 89.863283 
L 291.875977 92.209109 
L 298.741992 94.771203 
L 305.608008 97.571971 
L 312.419531 100.591567 
L 319.176562 103.829765 
L 325.933594 107.315655 
L 332.636133 111.024353 
L 339.28418 114.95625 
L 345.932227 119.147284 
L 352.525781 123.567013 
L 359.119336 128.256126 
L 365.658398 133.180204 
L 372.197461 138.384845 
L 378.682031 143.831379 
L 385.166602 149.570484 
L 391.59668 155.558952 
L 398.026758 161.852736 
L 404.402344 168.403784 
L 410.77793 175.27354 
L 417.153516 182.471734 
L 423.529102 190.00843 
L 429.850195 197.82512 
L 436.171289 205.995223 
L 442.492383 214.529517 
L 448.813477 223.439096 
L 455.13457 232.735379 
L 461.455664 242.430104 
L 467.776758 252.53533 
L 474.097852 263.063437 
L 480.418945 274.027127 
L 486.740039 285.439421 
L 493.061133 297.313663 
L 499.382227 309.663517 
L 505.70332 322.502967 
L 512.024414 335.84632 
L 518.345508 349.708203 
L 518.4 349.83 
L 518.4 349.83 
" clip-path="url(#p09e04c8624)" style="fill: none; stroke: #1f77b4; stroke-linecap: square"/>
   </g>
   <g id="line2d_2">
    <path d="M 72 154.305 
L 76.849805 148.046296 
L 81.645117 142.216709 
L 86.44043 136.732843 
L 91.235742 131.583152 
L 96.031055 126.755705 
L 100.880859 122.18872 
L 105.730664 117.926145 
L 110.634961 113.912221 
L 115.539258 110.183449 
L 120.498047 106.689992 
L 125.511328 103.427746 
L 130.633594 100.360957 
L 135.810352 97.52141 
L 141.041602 94.90376 
L 146.381836 92.479029 
L 151.831055 90.248878 
L 157.389258 88.214492 
L 163.056445 86.376709 
L 168.832617 84.736154 
L 174.772266 83.281064 
L 180.820898 82.028434 
L 187.033008 80.97063 
L 193.354102 80.120866 
L 199.78418 79.480627 
L 206.323242 79.052129 
L 212.971289 78.838458 
L 219.72832 78.84369 
L 226.539844 79.070312 
L 233.460352 79.523867 
L 240.380859 80.199578 
L 247.355859 81.103744 
L 254.330859 82.231464 
L 261.305859 83.583356 
L 268.280859 85.160995 
L 275.255859 86.966796 
L 282.176367 88.987088 
L 289.096875 91.238805 
L 295.962891 93.705697 
L 302.828906 96.409245 
L 309.64043 99.330213 
L 316.451953 102.494508 
L 323.208984 105.879591 
L 329.911523 109.485464 
L 336.614062 113.344657 
L 343.262109 117.429199 
L 349.910156 121.776227 
L 356.503711 126.353954 
L 363.097266 131.204314 
L 369.636328 136.291503 
L 376.175391 141.662446 
L 382.659961 147.277071 
L 389.144531 153.187456 
L 395.574609 159.348922 
L 402.004687 165.818797 
L 408.434766 172.606218 
L 414.864844 179.720468 
L 421.24043 187.106299 
L 427.616016 194.831625 
L 433.991602 202.905207 
L 440.42168 211.40898 
L 446.851758 220.283289 
L 453.336328 229.615016 
L 459.875391 239.419546 
L 466.468945 249.71076 
L 473.116992 260.500353 
L 479.928516 271.984146 
L 486.849023 284.090266 
L 493.9875 297.028601 
L 501.398438 310.923758 
L 509.245312 326.114094 
L 517.800586 343.172609 
L 518.4 344.385 
L 518.4 344.385 
" clip-path="url(#p09e04c8624)" style="fill: none; stroke: #ff7f0e; stroke-linecap: square"/>
   </g>
   <g id="line2d_3">
    <path d="M 72 121.4865 
L 73.525781 122.689407 
L 75.106055 123.653313 
L 76.686328 124.359677 
L 78.321094 124.848293 
L 80.010352 125.123318 
L 81.808594 125.189804 
L 83.71582 125.037923 
L 85.786523 124.650217 
L 88.075195 123.994174 
L 90.69082 123.004759 
L 93.687891 121.623998 
L 97.284375 119.710705 
L 101.916211 116.97805 
L 109.654102 112.110786 
L 119.953125 105.690751 
L 126.54668 101.850355 
L 132.54082 98.613245 
L 138.316992 95.744028 
L 144.038672 93.14986 
L 149.760352 90.800621 
L 155.536523 88.671182 
L 161.367188 86.759713 
L 167.306836 85.048356 
L 173.300977 83.552073 
L 179.404102 82.256204 
L 185.670703 81.154137 
L 192.046289 80.260473 
L 198.530859 79.577593 
L 205.124414 79.108421 
L 211.772461 78.857716 
L 218.529492 78.825182 
L 225.341016 79.013852 
L 232.261523 79.429059 
L 239.182031 80.066609 
L 246.157031 80.932404 
L 253.132031 82.021706 
L 260.107031 83.334987 
L 267.082031 84.873678 
L 274.057031 86.640058 
L 281.032031 88.637161 
L 287.952539 90.85033 
L 294.818555 93.278245 
L 301.68457 95.942008 
L 308.496094 98.822637 
L 315.307617 101.945659 
L 322.064648 105.288816 
L 328.767187 108.852072 
L 335.469727 112.667563 
L 342.117773 116.707632 
L 348.76582 121.009019 
L 355.359375 125.540298 
L 361.95293 130.343045 
L 368.491992 135.381937 
L 375.031055 140.703688 
L 381.515625 146.268983 
L 387.945703 152.079551 
L 394.375781 158.19046 
L 400.751367 164.556223 
L 407.126953 171.238224 
L 413.448047 178.18703 
L 419.714648 185.406981 
L 425.926758 192.903353 
L 432.084375 200.682727 
L 438.1875 208.753542 
L 444.181641 217.049773 
L 450.066797 225.575564 
L 455.788477 234.254642 
L 461.34668 243.088892 
L 466.686914 251.992919 
L 471.80918 260.967202 
L 476.658984 269.914432 
L 481.236328 278.828096 
L 485.541211 287.701858 
L 489.573633 296.526869 
L 493.333594 305.288482 
L 496.875586 314.102899 
L 500.199609 322.963146 
L 503.360156 332.013505 
L 506.411719 341.435234 
L 509.299805 351.07941 
L 512.078906 361.141322 
L 514.749023 371.649848 
L 517.310156 382.627491 
L 518.4 387.5985 
L 518.4 387.5985 
" clip-path="url(#p09e04c8624)" style="fill: none; stroke: #2ca02c; stroke-linecap: square"/>
   </g>
   <g id="line2d_4">
    <path d="M 72 171.298669 
L 73.907227 165.308916 
L 75.868945 159.885306 
L 77.885156 154.959155 
L 80.010352 150.354485 
L 82.244531 146.047404 
L 84.587695 142.009056 
L 87.094336 138.128252 
L 89.818945 134.324177 
L 92.761523 130.603458 
L 95.92207 126.965559 
L 99.355078 123.351917 
L 103.060547 119.772266 
L 107.092969 116.189313 
L 111.343359 112.710511 
L 115.811719 109.338408 
L 120.498047 106.079638 
L 125.347852 102.977128 
L 130.361133 100.033776 
L 135.537891 97.254133 
L 140.823633 94.669048 
L 146.218359 92.27709 
L 151.776562 90.056989 
L 157.44375 88.033763 
L 163.219922 86.207501 
L 169.105078 84.578694 
L 175.153711 83.136225 
L 181.311328 81.897298 
L 187.57793 80.863385 
L 193.953516 80.036429 
L 200.438086 79.418916 
L 207.031641 79.013967 
L 213.73418 78.825444 
L 220.491211 78.856925 
L 227.357227 79.111715 
L 234.277734 79.591949 
L 241.252734 80.300301 
L 248.227734 81.232461 
L 255.202734 82.388162 
L 262.177734 83.768172 
L 269.152734 85.374185 
L 276.127734 87.208713 
L 283.048242 89.257945 
L 289.96875 91.539109 
L 296.834766 94.035785 
L 303.700781 96.769741 
L 310.512305 99.721546 
L 317.269336 102.890845 
L 324.026367 106.305981 
L 330.728906 109.942408 
L 337.431445 113.832942 
L 344.079492 117.949402 
L 350.727539 122.329246 
L 357.321094 126.940501 
L 363.860156 131.783991 
L 370.399219 136.904519 
L 376.883789 142.26413 
L 383.368359 147.912976 
L 389.798437 153.809066 
L 396.228516 160.008349 
L 402.604102 166.464757 
L 408.925195 173.181309 
L 415.246289 180.223626 
L 421.512891 187.539484 
L 427.725 195.133871 
L 433.882617 203.012614 
L 439.985742 211.182553 
L 446.034375 219.651769 
L 452.028516 228.429853 
L 457.913672 237.442863 
L 463.744336 246.781747 
L 469.466016 256.367986 
L 475.078711 266.204538 
L 480.636914 276.393433 
L 486.249609 287.151185 
L 492.134766 298.921723 
L 500.199609 315.616831 
L 505.921289 327.258717 
L 508.918359 332.878097 
L 511.152539 336.616472 
L 512.896289 339.127058 
L 514.313086 340.810247 
L 515.511914 341.91786 
L 516.547266 342.591037 
L 517.473633 342.931022 
L 518.291016 342.99388 
L 518.4 342.983831 
L 518.4 342.983831 
" clip-path="url(#p09e04c8624)" style="fill: none; stroke: #d62728; stroke-linecap: square"/>
   </g>
   <g id="line2d_5">
    <path d="M 72 121.160625 
L 72.871875 128.081408 
L 73.689258 132.898624 
L 74.506641 136.442677 
L 75.269531 138.83846 
L 76.032422 140.532938 
L 76.74082 141.602043 
L 77.449219 142.279933 
L 78.157617 142.641712 
L 78.866016 142.748817 
L 79.628906 142.636728 
L 80.500781 142.282815 
L 81.590625 141.587653 
L 83.007422 140.39563 
L 84.969141 138.428399 
L 88.674609 134.332077 
L 94.450781 128.016786 
L 98.701172 123.709257 
L 102.951562 119.716691 
L 107.310937 115.926232 
L 111.833789 112.29002 
L 116.465625 108.850603 
L 121.260938 105.566866 
L 126.165234 102.476578 
L 131.233008 99.546552 
L 136.409766 96.810177 
L 141.695508 94.265883 
L 147.144727 91.890214 
L 152.70293 89.710034 
L 158.370117 87.725179 
L 164.200781 85.920109 
L 170.14043 84.315456 
L 176.189062 82.912014 
L 182.34668 81.710964 
L 188.613281 80.71391 
L 195.043359 79.917115 
L 201.582422 79.332728 
L 208.230469 78.96392 
L 214.933008 78.814955 
L 221.744531 78.886807 
L 228.610547 79.182146 
L 235.531055 79.702689 
L 242.506055 80.451326 
L 249.481055 81.423642 
L 256.456055 82.619564 
L 263.431055 84.040034 
L 270.406055 85.6869 
L 277.381055 87.562813 
L 284.301562 89.653751 
L 291.22207 91.977367 
L 298.088086 94.516991 
L 304.954102 97.294805 
L 311.765625 100.291094 
L 318.522656 103.505551 
L 325.279687 106.966941 
L 331.982227 110.650396 
L 338.684766 114.589172 
L 345.332812 118.75475 
L 351.926367 123.147639 
L 358.519922 127.808094 
L 365.058984 132.701778 
L 371.598047 137.87398 
L 378.082617 143.286394 
L 384.567187 148.989707 
L 390.997266 154.941567 
L 397.427344 161.198512 
L 403.80293 167.714112 
L 410.124023 174.491512 
L 416.445117 181.597029 
L 422.711719 188.978096 
L 428.923828 196.639907 
L 435.081445 204.588533 
L 441.18457 212.831114 
L 447.233203 221.376113 
L 453.172852 230.151305 
L 459.058008 239.243639 
L 464.83418 248.577286 
L 470.501367 258.15724 
L 476.05957 267.991358 
L 481.454297 277.988169 
L 486.685547 288.150571 
L 491.698828 298.376226 
L 496.385156 308.439907 
L 500.526562 317.854221 
L 503.905078 326.06884 
L 506.575195 333.125968 
L 508.700391 339.351511 
L 510.444141 345.12128 
L 511.969922 350.932113 
L 513.332227 357.015703 
L 514.531055 363.370754 
L 515.675391 370.655602 
L 516.765234 379.103302 
L 517.800586 388.965108 
L 518.4 395.720625 
L 518.4 395.720625 
" clip-path="url(#p09e04c8624)" style="fill: none; stroke: #9467bd; stroke-linecap: square"/>
   </g>
   <g id="line2d_6">
    <path d="M 72 175.275509 
L 72.762891 168.543995 
L 73.525781 163.664274 
L 74.343164 159.783735 
L 75.269531 156.466349 
L 76.304883 153.596791 
L 77.503711 150.923954 
L 79.029492 148.081423 
L 80.991211 144.909962 
L 83.552344 141.200042 
L 86.658398 137.094562 
L 90.145898 132.856543 
L 93.851367 128.702121 
L 97.774805 124.635438 
L 101.916211 120.664932 
L 106.221094 116.847336 
L 110.689453 113.183249 
L 115.321289 109.675012 
L 120.062109 106.362672 
L 124.966406 103.208096 
L 129.979687 100.247346 
L 135.156445 97.449837 
L 140.442187 94.847228 
L 145.836914 92.438312 
L 151.340625 90.222478 
L 157.007812 88.181088 
L 162.783984 86.337313 
L 168.669141 84.691585 
L 174.717773 83.232585 
L 180.875391 81.977621 
L 187.141992 80.928109 
L 193.517578 80.085935 
L 200.002148 79.453529 
L 206.595703 79.033948 
L 213.298242 78.830992 
L 220.055273 78.848284 
L 226.921289 79.08894 
L 233.841797 79.555134 
L 240.816797 80.249463 
L 247.791797 81.167655 
L 254.766797 82.309372 
L 261.741797 83.675323 
L 268.716797 85.267144 
L 275.691797 87.087302 
L 282.612305 89.122057 
L 289.532812 91.388489 
L 296.398828 93.870263 
L 303.264844 96.589005 
L 310.076367 99.525381 
L 316.833398 102.679018 
L 323.59043 106.078115 
L 330.292969 109.698236 
L 336.995508 113.572045 
L 343.643555 117.671478 
L 350.291602 122.033832 
L 356.885156 126.627258 
L 363.424219 131.452562 
L 369.963281 136.554368 
L 376.447852 141.894851 
L 382.932422 147.52397 
L 389.3625 153.399863 
L 395.792578 159.578269 
L 402.168164 166.013249 
L 408.489258 172.70778 
L 414.810352 179.727231 
L 421.076953 187.019502 
L 427.289062 194.589512 
L 433.44668 202.443001 
L 439.549805 210.586712 
L 445.598437 219.028621 
L 451.592578 227.778236 
L 457.477734 236.761926 
L 463.308398 246.070808 
L 469.030078 255.628184 
L 474.588281 265.343903 
L 480.0375 275.31713 
L 485.323242 285.45591 
L 490.391016 295.653907 
L 495.24082 305.907086 
L 499.872656 316.219005 
L 504.177539 326.339112 
L 508.42793 336.910322 
L 513.277734 348.994552 
L 514.367578 351.119947 
L 515.075977 352.095493 
L 515.620898 352.495238 
L 516.002344 352.523202 
L 516.329297 352.335358 
L 516.710742 351.809216 
L 517.092187 350.872826 
L 517.528125 349.166747 
L 518.018555 346.199884 
L 518.4 342.905116 
L 518.4 342.905116 
" clip-path="url(#p09e04c8624)" style="fill: none; stroke: #8c564b; stroke-linecap: square"/>
   </g>
   <g id="matplotlib.axis_1">
    <g id="xtick_1">
     <g id="line2d_7">
      <path d="M 72 384.48 
L 72 51.84 
" clip-path="url(#p09e04c8624)" style="fill: none; stroke: #b0b0b0; stroke-width: 0.8; stroke-linecap: square"/>
     </g>
     <g id="line2d_8">
      <defs>
       <path id="mf0db0f7ad7" d="M 0 0 
L 0 3.5 
" style="stroke: #000000; stroke-width: 0.8"/>
      </defs>
      <g>
       <use xlink:href="#mf0db0f7ad7" x="72" y="384.48" style="stroke: #000000; stroke-width: 0.8"/>
      </g>
     </g>
     <g id="text_1">
      <!-- −1.00 -->
      <g transform="translate(56.677344 399.078438)scale(0.1 -0.1)">
       <defs>
        <path id="DejaVuSans-2212" d="M 678 2272 
L 4684 2272 
L 4684 1741 
L 678 1741 
L 678 2272 
z
" transform="scale(0.015625)"/>
        <path id="DejaVuSans-31" d="M 794 531 
L 1825 531 
L 1825 4091 
L 703 3866 
L 703 4441 
L 1819 4666 
L 2450 4666 
L 2450 531 
L 3481 531 
L 3481 0 
L 794 0 
L 794 531 
z
" transform="scale(0.015625)"/>
        <path id="DejaVuSans-2e" d="M 684 794 
L 1344 794 
L 1344 0 
L 684 0 
L 684 794 
z
" transform="scale(0.015625)"/>
        <path id="DejaVuSans-30" d="M 2034 4250 
Q 1547 4250 1301 3770 
Q 1056 3291 1056 2328 
Q 1056 1369 1301 889 
Q 1547 409 2034 409 
Q 2525 409 2770 889 
Q 3016 1369 3016 2328 
Q 3016 3291 2770 3770 
Q 2525 4250 2034 4250 
z
M 2034 4750 
Q 2819 4750 3233 4129 
Q 3647 3509 3647 2328 
Q 3647 1150 3233 529 
Q 2819 -91 2034 -91 
Q 1250 -91 836 529 
Q 422 1150 422 2328 
Q 422 3509 836 4129 
Q 1250 4750 2034 4750 
z
" transform="scale(0.015625)"/>
       </defs>
       <use xlink:href="#DejaVuSans-2212"/>
       <use xlink:href="#DejaVuSans-31" x="83.789062"/>
       <use xlink:href="#DejaVuSans-2e" x="147.412109"/>
       <use xlink:href="#DejaVuSans-30" x="179.199219"/>
       <use xlink:href="#DejaVuSans-30" x="242.822266"/>
      </g>
     </g>
    </g>
    <g id="xtick_2">
     <g id="line2d_9">
      <path d="M 127.8 384.48 
L 127.8 51.84 
" clip-path="url(#p09e04c8624)" style="fill: none; stroke: #b0b0b0; stroke-width: 0.8; stroke-linecap: square"/>
     </g>
     <g id="line2d_10">
      <g>
       <use xlink:href="#mf0db0f7ad7" x="127.8" y="384.48" style="stroke: #000000; stroke-width: 0.8"/>
      </g>
     </g>
     <g id="text_2">
      <!-- −0.75 -->
      <g transform="translate(112.477344 399.078438)scale(0.1 -0.1)">
       <defs>
        <path id="DejaVuSans-37" d="M 525 4666 
L 3525 4666 
L 3525 4397 
L 1831 0 
L 1172 0 
L 2766 4134 
L 525 4134 
L 525 4666 
z
" transform="scale(0.015625)"/>
        <path id="DejaVuSans-35" d="M 691 4666 
L 3169 4666 
L 3169 4134 
L 1269 4134 
L 1269 2991 
Q 1406 3038 1543 3061 
Q 1681 3084 1819 3084 
Q 2600 3084 3056 2656 
Q 3513 2228 3513 1497 
Q 3513 744 3044 326 
Q 2575 -91 1722 -91 
Q 1428 -91 1123 -41 
Q 819 9 494 109 
L 494 744 
Q 775 591 1075 516 
Q 1375 441 1709 441 
Q 2250 441 2565 725 
Q 2881 1009 2881 1497 
Q 2881 1984 2565 2268 
Q 2250 2553 1709 2553 
Q 1456 2553 1204 2497 
Q 953 2441 691 2322 
L 691 4666 
z
" transform="scale(0.015625)"/>
       </defs>
       <use xlink:href="#DejaVuSans-2212"/>
       <use xlink:href="#DejaVuSans-30" x="83.789062"/>
       <use xlink:href="#DejaVuSans-2e" x="147.412109"/>
       <use xlink:href="#DejaVuSans-37" x="179.199219"/>
       <use xlink:href="#DejaVuSans-35" x="242.822266"/>
      </g>
     </g>
    </g>
    <g id="xtick_3">
     <g id="line2d_11">
      <path d="M 183.6 384.48 
L 183.6 51.84 
" clip-path="url(#p09e04c8624)" style="fill: none; stroke: #b0b0b0; stroke-width: 0.8; stroke-linecap: square"/>
     </g>
     <g id="line2d_12">
      <g>
       <use xlink:href="#mf0db0f7ad7" x="183.6" y="384.48" style="stroke: #000000; stroke-width: 0.8"/>
      </g>
     </g>
     <g id="text_3">
      <!-- −0.50 -->
      <g transform="translate(168.277344 399.078438)scale(0.1 -0.1)">
       <use xlink:href="#DejaVuSans-2212"/>
       <use xlink:href="#DejaVuSans-30" x="83.789062"/>
       <use xlink:href="#DejaVuSans-2e" x="147.412109"/>
       <use xlink:href="#DejaVuSans-35" x="179.199219"/>
       <use xlink:href="#DejaVuSans-30" x="242.822266"/>
      </g>
     </g>
    </g>
    <g id="xtick_4">
     <g id="line2d_13">
      <path d="M 239.4 384.48 
L 239.4 51.84 
" clip-path="url(#p09e04c8624)" style="fill: none; stroke: #b0b0b0; stroke-width: 0.8; stroke-linecap: square"/>
     </g>
     <g id="line2d_14">
      <g>
       <use xlink:href="#mf0db0f7ad7" x="239.4" y="384.48" style="stroke: #000000; stroke-width: 0.8"/>
      </g>
     </g>
     <g id="text_4">
      <!-- −0.25 -->
      <g transform="translate(224.077344 399.078438)scale(0.1 -0.1)">
       <defs>
        <path id="DejaVuSans-32" d="M 1228 531 
L 3431 531 
L 3431 0 
L 469 0 
L 469 531 
Q 828 903 1448 1529 
Q 2069 2156 2228 2338 
Q 2531 2678 2651 2914 
Q 2772 3150 2772 3378 
Q 2772 3750 2511 3984 
Q 2250 4219 1831 4219 
Q 1534 4219 1204 4116 
Q 875 4013 500 3803 
L 500 4441 
Q 881 4594 1212 4672 
Q 1544 4750 1819 4750 
Q 2544 4750 2975 4387 
Q 3406 4025 3406 3419 
Q 3406 3131 3298 2873 
Q 3191 2616 2906 2266 
Q 2828 2175 2409 1742 
Q 1991 1309 1228 531 
z
" transform="scale(0.015625)"/>
       </defs>
       <use xlink:href="#DejaVuSans-2212"/>
       <use xlink:href="#DejaVuSans-30" x="83.789062"/>
       <use xlink:href="#DejaVuSans-2e" x="147.412109"/>
       <use xlink:href="#DejaVuSans-32" x="179.199219"/>
       <use xlink:href="#DejaVuSans-35" x="242.822266"/>
      </g>
     </g>
    </g>
    <g id="xtick_5">
     <g id="line2d_15">
      <path d="M 295.2 384.48 
L 295.2 51.84 
" clip-path="url(#p09e04c8624)" style="fill: none; stroke: #b0b0b0; stroke-width: 0.8; stroke-linecap: square"/>
     </g>
     <g id="line2d_16">
      <g>
       <use xlink:href="#mf0db0f7ad7" x="295.2" y="384.48" style="stroke: #000000; stroke-width: 0.8"/>
      </g>
     </g>
     <g id="text_5">
      <!-- 0.00 -->
      <g transform="translate(284.067187 399.078438)scale(0.1 -0.1)">
       <use xlink:href="#DejaVuSans-30"/>
       <use xlink:href="#DejaVuSans-2e" x="63.623047"/>
       <use xlink:href="#DejaVuSans-30" x="95.410156"/>
       <use xlink:href="#DejaVuSans-30" x="159.033203"/>
      </g>
     </g>
    </g>
    <g id="xtick_6">
     <g id="line2d_17">
      <path d="M 351 384.48 
L 351 51.84 
" clip-path="url(#p09e04c8624)" style="fill: none; stroke: #b0b0b0; stroke-width: 0.8; stroke-linecap: square"/>
     </g>
     <g id="line2d_18">
      <g>
       <use xlink:href="#mf0db0f7ad7" x="351" y="384.48" style="stroke: #000000; stroke-width: 0.8"/>
      </g>
     </g>
     <g id="text_6">
      <!-- 0.25 -->
      <g transform="translate(339.867188 399.078438)scale(0.1 -0.1)">
       <use xlink:href="#DejaVuSans-30"/>
       <use xlink:href="#DejaVuSans-2e" x="63.623047"/>
       <use xlink:href="#DejaVuSans-32" x="95.410156"/>
       <use xlink:href="#DejaVuSans-35" x="159.033203"/>
      </g>
     </g>
    </g>
    <g id="xtick_7">
     <g id="line2d_19">
      <path d="M 406.8 384.48 
L 406.8 51.84 
" clip-path="url(#p09e04c8624)" style="fill: none; stroke: #b0b0b0; stroke-width: 0.8; stroke-linecap: square"/>
     </g>
     <g id="line2d_20">
      <g>
       <use xlink:href="#mf0db0f7ad7" x="406.8" y="384.48" style="stroke: #000000; stroke-width: 0.8"/>
      </g>
     </g>
     <g id="text_7">
      <!-- 0.50 -->
      <g transform="translate(395.667187 399.078438)scale(0.1 -0.1)">
       <use xlink:href="#DejaVuSans-30"/>
       <use xlink:href="#DejaVuSans-2e" x="63.623047"/>
       <use xlink:href="#DejaVuSans-35" x="95.410156"/>
       <use xlink:href="#DejaVuSans-30" x="159.033203"/>
      </g>
     </g>
    </g>
    <g id="xtick_8">
     <g id="line2d_21">
      <path d="M 462.6 384.48 
L 462.6 51.84 
" clip-path="url(#p09e04c8624)" style="fill: none; stroke: #b0b0b0; stroke-width: 0.8; stroke-linecap: square"/>
     </g>
     <g id="line2d_22">
      <g>
       <use xlink:href="#mf0db0f7ad7" x="462.6" y="384.48" style="stroke: #000000; stroke-width: 0.8"/>
      </g>
     </g>
     <g id="text_8">
      <!-- 0.75 -->
      <g transform="translate(451.467187 399.078438)scale(0.1 -0.1)">
       <use xlink:href="#DejaVuSans-30"/>
       <use xlink:href="#DejaVuSans-2e" x="63.623047"/>
       <use xlink:href="#DejaVuSans-37" x="95.410156"/>
       <use xlink:href="#DejaVuSans-35" x="159.033203"/>
      </g>
     </g>
    </g>
    <g id="xtick_9">
     <g id="line2d_23">
      <path d="M 518.4 384.48 
L 518.4 51.84 
" clip-path="url(#p09e04c8624)" style="fill: none; stroke: #b0b0b0; stroke-width: 0.8; stroke-linecap: square"/>
     </g>
     <g id="line2d_24">
      <g>
       <use xlink:href="#mf0db0f7ad7" x="518.4" y="384.48" style="stroke: #000000; stroke-width: 0.8"/>
      </g>
     </g>
     <g id="text_9">
      <!-- 1.00 -->
      <g transform="translate(507.267187 399.078438)scale(0.1 -0.1)">
       <use xlink:href="#DejaVuSans-31"/>
       <use xlink:href="#DejaVuSans-2e" x="63.623047"/>
       <use xlink:href="#DejaVuSans-30" x="95.410156"/>
       <use xlink:href="#DejaVuSans-30" x="159.033203"/>
      </g>
     </g>
    </g>
    <g id="text_10">
     <!-- $q$ -->
     <g transform="translate(292 412.73625)scale(0.1 -0.1)">
      <defs>
       <path id="DejaVuSans-Oblique-71" d="M 2669 525 
Q 2438 222 2123 65 
Q 1809 -91 1428 -91 
Q 897 -91 595 267 
Q 294 625 294 1253 
Q 294 1759 480 2231 
Q 666 2703 1013 3078 
Q 1238 3322 1530 3453 
Q 1822 3584 2144 3584 
Q 2531 3584 2781 3431 
Q 3031 3278 3144 2969 
L 3244 3494 
L 3822 3494 
L 2888 -1319 
L 2309 -1319 
L 2669 525 
z
M 891 1338 
Q 891 875 1084 633 
Q 1278 391 1644 391 
Q 2188 391 2572 911 
Q 2956 1431 2956 2175 
Q 2956 2625 2757 2864 
Q 2559 3103 2188 3103 
Q 1916 3103 1684 2976 
Q 1453 2850 1281 2606 
Q 1100 2350 995 2006 
Q 891 1663 891 1338 
z
" transform="scale(0.015625)"/>
      </defs>
      <use xlink:href="#DejaVuSans-Oblique-71"/>
     </g>
    </g>
   </g>
   <g id="matplotlib.axis_2">
    <g id="ytick_1">
     <g id="line2d_25">
      <path d="M 72 384.48 
L 518.4 384.48 
" clip-path="url(#p09e04c8624)" style="fill: none; stroke: #b0b0b0; stroke-width: 0.8; stroke-linecap: square"/>
     </g>
     <g id="line2d_26">
      <defs>
       <path id="mb22177c2af" d="M 0 0 
L -3.5 0 
" style="stroke: #000000; stroke-width: 0.8"/>
      </defs>
      <g>
       <use xlink:href="#mb22177c2af" x="72" y="384.48" style="stroke: #000000; stroke-width: 0.8"/>
      </g>
     </g>
     <g id="text_11">
      <!-- −3.5 -->
      <g transform="translate(40.717187 388.279219)scale(0.1 -0.1)">
       <defs>
        <path id="DejaVuSans-33" d="M 2597 2516 
Q 3050 2419 3304 2112 
Q 3559 1806 3559 1356 
Q 3559 666 3084 287 
Q 2609 -91 1734 -91 
Q 1441 -91 1130 -33 
Q 819 25 488 141 
L 488 750 
Q 750 597 1062 519 
Q 1375 441 1716 441 
Q 2309 441 2620 675 
Q 2931 909 2931 1356 
Q 2931 1769 2642 2001 
Q 2353 2234 1838 2234 
L 1294 2234 
L 1294 2753 
L 1863 2753 
Q 2328 2753 2575 2939 
Q 2822 3125 2822 3475 
Q 2822 3834 2567 4026 
Q 2313 4219 1838 4219 
Q 1578 4219 1281 4162 
Q 984 4106 628 3988 
L 628 4550 
Q 988 4650 1302 4700 
Q 1616 4750 1894 4750 
Q 2613 4750 3031 4423 
Q 3450 4097 3450 3541 
Q 3450 3153 3228 2886 
Q 3006 2619 2597 2516 
z
" transform="scale(0.015625)"/>
       </defs>
       <use xlink:href="#DejaVuSans-2212"/>
       <use xlink:href="#DejaVuSans-33" x="83.789062"/>
       <use xlink:href="#DejaVuSans-2e" x="147.412109"/>
       <use xlink:href="#DejaVuSans-35" x="179.199219"/>
      </g>
     </g>
    </g>
    <g id="ytick_2">
     <g id="line2d_27">
      <path d="M 72 342.9 
L 518.4 342.9 
" clip-path="url(#p09e04c8624)" style="fill: none; stroke: #b0b0b0; stroke-width: 0.8; stroke-linecap: square"/>
     </g>
     <g id="line2d_28">
      <g>
       <use xlink:href="#mb22177c2af" x="72" y="342.9" style="stroke: #000000; stroke-width: 0.8"/>
      </g>
     </g>
     <g id="text_12">
      <!-- −3.0 -->
      <g transform="translate(40.717187 346.699219)scale(0.1 -0.1)">
       <use xlink:href="#DejaVuSans-2212"/>
       <use xlink:href="#DejaVuSans-33" x="83.789062"/>
       <use xlink:href="#DejaVuSans-2e" x="147.412109"/>
       <use xlink:href="#DejaVuSans-30" x="179.199219"/>
      </g>
     </g>
    </g>
    <g id="ytick_3">
     <g id="line2d_29">
      <path d="M 72 301.32 
L 518.4 301.32 
" clip-path="url(#p09e04c8624)" style="fill: none; stroke: #b0b0b0; stroke-width: 0.8; stroke-linecap: square"/>
     </g>
     <g id="line2d_30">
      <g>
       <use xlink:href="#mb22177c2af" x="72" y="301.32" style="stroke: #000000; stroke-width: 0.8"/>
      </g>
     </g>
     <g id="text_13">
      <!-- −2.5 -->
      <g transform="translate(40.717187 305.119219)scale(0.1 -0.1)">
       <use xlink:href="#DejaVuSans-2212"/>
       <use xlink:href="#DejaVuSans-32" x="83.789062"/>
       <use xlink:href="#DejaVuSans-2e" x="147.412109"/>
       <use xlink:href="#DejaVuSans-35" x="179.199219"/>
      </g>
     </g>
    </g>
    <g id="ytick_4">
     <g id="line2d_31">
      <path d="M 72 259.74 
L 518.4 259.74 
" clip-path="url(#p09e04c8624)" style="fill: none; stroke: #b0b0b0; stroke-width: 0.8; stroke-linecap: square"/>
     </g>
     <g id="line2d_32">
      <g>
       <use xlink:href="#mb22177c2af" x="72" y="259.74" style="stroke: #000000; stroke-width: 0.8"/>
      </g>
     </g>
     <g id="text_14">
      <!-- −2.0 -->
      <g transform="translate(40.717187 263.539219)scale(0.1 -0.1)">
       <use xlink:href="#DejaVuSans-2212"/>
       <use xlink:href="#DejaVuSans-32" x="83.789062"/>
       <use xlink:href="#DejaVuSans-2e" x="147.412109"/>
       <use xlink:href="#DejaVuSans-30" x="179.199219"/>
      </g>
     </g>
    </g>
    <g id="ytick_5">
     <g id="line2d_33">
      <path d="M 72 218.16 
L 518.4 218.16 
" clip-path="url(#p09e04c8624)" style="fill: none; stroke: #b0b0b0; stroke-width: 0.8; stroke-linecap: square"/>
     </g>
     <g id="line2d_34">
      <g>
       <use xlink:href="#mb22177c2af" x="72" y="218.16" style="stroke: #000000; stroke-width: 0.8"/>
      </g>
     </g>
     <g id="text_15">
      <!-- −1.5 -->
      <g transform="translate(40.717187 221.959219)scale(0.1 -0.1)">
       <use xlink:href="#DejaVuSans-2212"/>
       <use xlink:href="#DejaVuSans-31" x="83.789062"/>
       <use xlink:href="#DejaVuSans-2e" x="147.412109"/>
       <use xlink:href="#DejaVuSans-35" x="179.199219"/>
      </g>
     </g>
    </g>
    <g id="ytick_6">
     <g id="line2d_35">
      <path d="M 72 176.58 
L 518.4 176.58 
" clip-path="url(#p09e04c8624)" style="fill: none; stroke: #b0b0b0; stroke-width: 0.8; stroke-linecap: square"/>
     </g>
     <g id="line2d_36">
      <g>
       <use xlink:href="#mb22177c2af" x="72" y="176.58" style="stroke: #000000; stroke-width: 0.8"/>
      </g>
     </g>
     <g id="text_16">
      <!-- −1.0 -->
      <g transform="translate(40.717187 180.379219)scale(0.1 -0.1)">
       <use xlink:href="#DejaVuSans-2212"/>
       <use xlink:href="#DejaVuSans-31" x="83.789062"/>
       <use xlink:href="#DejaVuSans-2e" x="147.412109"/>
       <use xlink:href="#DejaVuSans-30" x="179.199219"/>
      </g>
     </g>
    </g>
    <g id="ytick_7">
     <g id="line2d_37">
      <path d="M 72 135 
L 518.4 135 
" clip-path="url(#p09e04c8624)" style="fill: none; stroke: #b0b0b0; stroke-width: 0.8; stroke-linecap: square"/>
     </g>
     <g id="line2d_38">
      <g>
       <use xlink:href="#mb22177c2af" x="72" y="135" style="stroke: #000000; stroke-width: 0.8"/>
      </g>
     </g>
     <g id="text_17">
      <!-- −0.5 -->
      <g transform="translate(40.717187 138.799219)scale(0.1 -0.1)">
       <use xlink:href="#DejaVuSans-2212"/>
       <use xlink:href="#DejaVuSans-30" x="83.789062"/>
       <use xlink:href="#DejaVuSans-2e" x="147.412109"/>
       <use xlink:href="#DejaVuSans-35" x="179.199219"/>
      </g>
     </g>
    </g>
    <g id="ytick_8">
     <g id="line2d_39">
      <path d="M 72 93.42 
L 518.4 93.42 
" clip-path="url(#p09e04c8624)" style="fill: none; stroke: #b0b0b0; stroke-width: 0.8; stroke-linecap: square"/>
     </g>
     <g id="line2d_40">
      <g>
       <use xlink:href="#mb22177c2af" x="72" y="93.42" style="stroke: #000000; stroke-width: 0.8"/>
      </g>
     </g>
     <g id="text_18">
      <!-- 0.0 -->
      <g transform="translate(49.096875 97.219219)scale(0.1 -0.1)">
       <use xlink:href="#DejaVuSans-30"/>
       <use xlink:href="#DejaVuSans-2e" x="63.623047"/>
       <use xlink:href="#DejaVuSans-30" x="95.410156"/>
      </g>
     </g>
    </g>
    <g id="ytick_9">
     <g id="line2d_41">
      <path d="M 72 51.84 
L 518.4 51.84 
" clip-path="url(#p09e04c8624)" style="fill: none; stroke: #b0b0b0; stroke-width: 0.8; stroke-linecap: square"/>
     </g>
     <g id="line2d_42">
      <g>
       <use xlink:href="#mb22177c2af" x="72" y="51.84" style="stroke: #000000; stroke-width: 0.8"/>
      </g>
     </g>
     <g id="text_19">
      <!-- 0.5 -->
      <g transform="translate(49.096875 55.639219)scale(0.1 -0.1)">
       <use xlink:href="#DejaVuSans-30"/>
       <use xlink:href="#DejaVuSans-2e" x="63.623047"/>
       <use xlink:href="#DejaVuSans-35" x="95.410156"/>
      </g>
     </g>
    </g>
    <g id="text_20">
     <!-- $\log ((q; q)_\infty ) \cdot (1-q^2)$ -->
     <g transform="translate(34.617187 268.26)rotate(-90)scale(0.1 -0.1)">
      <defs>
       <path id="DejaVuSans-6c" d="M 603 4863 
L 1178 4863 
L 1178 0 
L 603 0 
L 603 4863 
z
" transform="scale(0.015625)"/>
       <path id="DejaVuSans-6f" d="M 1959 3097 
Q 1497 3097 1228 2736 
Q 959 2375 959 1747 
Q 959 1119 1226 758 
Q 1494 397 1959 397 
Q 2419 397 2687 759 
Q 2956 1122 2956 1747 
Q 2956 2369 2687 2733 
Q 2419 3097 1959 3097 
z
M 1959 3584 
Q 2709 3584 3137 3096 
Q 3566 2609 3566 1747 
Q 3566 888 3137 398 
Q 2709 -91 1959 -91 
Q 1206 -91 779 398 
Q 353 888 353 1747 
Q 353 2609 779 3096 
Q 1206 3584 1959 3584 
z
" transform="scale(0.015625)"/>
       <path id="DejaVuSans-67" d="M 2906 1791 
Q 2906 2416 2648 2759 
Q 2391 3103 1925 3103 
Q 1463 3103 1205 2759 
Q 947 2416 947 1791 
Q 947 1169 1205 825 
Q 1463 481 1925 481 
Q 2391 481 2648 825 
Q 2906 1169 2906 1791 
z
M 3481 434 
Q 3481 -459 3084 -895 
Q 2688 -1331 1869 -1331 
Q 1566 -1331 1297 -1286 
Q 1028 -1241 775 -1147 
L 775 -588 
Q 1028 -725 1275 -790 
Q 1522 -856 1778 -856 
Q 2344 -856 2625 -561 
Q 2906 -266 2906 331 
L 2906 616 
Q 2728 306 2450 153 
Q 2172 0 1784 0 
Q 1141 0 747 490 
Q 353 981 353 1791 
Q 353 2603 747 3093 
Q 1141 3584 1784 3584 
Q 2172 3584 2450 3431 
Q 2728 3278 2906 2969 
L 2906 3500 
L 3481 3500 
L 3481 434 
z
" transform="scale(0.015625)"/>
       <path id="DejaVuSans-28" d="M 1984 4856 
Q 1566 4138 1362 3434 
Q 1159 2731 1159 2009 
Q 1159 1288 1364 580 
Q 1569 -128 1984 -844 
L 1484 -844 
Q 1016 -109 783 600 
Q 550 1309 550 2009 
Q 550 2706 781 3412 
Q 1013 4119 1484 4856 
L 1984 4856 
z
" transform="scale(0.015625)"/>
       <path id="DejaVuSans-3b" d="M 750 3309 
L 1409 3309 
L 1409 2516 
L 750 2516 
L 750 3309 
z
M 750 794 
L 1409 794 
L 1409 256 
L 897 -744 
L 494 -744 
L 750 256 
L 750 794 
z
" transform="scale(0.015625)"/>
       <path id="DejaVuSans-29" d="M 513 4856 
L 1013 4856 
Q 1481 4119 1714 3412 
Q 1947 2706 1947 2009 
Q 1947 1309 1714 600 
Q 1481 -109 1013 -844 
L 513 -844 
Q 928 -128 1133 580 
Q 1338 1288 1338 2009 
Q 1338 2731 1133 3434 
Q 928 4138 513 4856 
z
" transform="scale(0.015625)"/>
       <path id="DejaVuSans-221e" d="M 2916 1091 
Q 2819 1203 2666 1466 
Q 2456 1091 2272 925 
Q 2041 725 1681 725 
Q 1259 725 981 1041 
Q 688 1372 688 1919 
Q 688 2444 981 2800 
Q 1244 3116 1688 3116 
Q 1916 3116 2084 3022 
Q 2281 2919 2416 2741 
Q 2541 2581 2666 2366 
Q 2875 2741 3059 2906 
Q 3291 3106 3650 3106 
Q 4072 3106 4350 2791 
Q 4644 2459 4644 1913 
Q 4644 1388 4350 1031 
Q 4088 716 3644 716 
Q 3416 716 3247 809 
Q 3078 894 2916 1091 
z
M 1647 1134 
Q 2163 1134 2472 1884 
Q 2075 2703 1647 2703 
Q 1334 2703 1175 2478 
Q 1003 2238 1003 1919 
Q 1003 1569 1175 1353 
Q 1350 1134 1647 1134 
z
M 3684 2697 
Q 3219 2697 2859 1947 
Q 3253 1128 3684 1128 
Q 3997 1128 4156 1353 
Q 4328 1594 4328 1913 
Q 4328 2263 4156 2478 
Q 3981 2697 3684 2697 
z
" transform="scale(0.015625)"/>
       <path id="DejaVuSans-22c5" d="M 684 2619 
L 1344 2619 
L 1344 1825 
L 684 1825 
L 684 2619 
z
" transform="scale(0.015625)"/>
      </defs>
      <use xlink:href="#DejaVuSans-6c" transform="translate(0 0.765625)"/>
      <use xlink:href="#DejaVuSans-6f" transform="translate(27.783203 0.765625)"/>
      <use xlink:href="#DejaVuSans-67" transform="translate(88.964844 0.765625)"/>
      <use xlink:href="#DejaVuSans-28" transform="translate(152.441406 0.765625)"/>
      <use xlink:href="#DejaVuSans-28" transform="translate(191.455078 0.765625)"/>
      <use xlink:href="#DejaVuSans-Oblique-71" transform="translate(230.46875 0.765625)"/>
      <use xlink:href="#DejaVuSans-3b" transform="translate(293.945312 0.765625)"/>
      <use xlink:href="#DejaVuSans-Oblique-71" transform="translate(347.119141 0.765625)"/>
      <use xlink:href="#DejaVuSans-29" transform="translate(410.595703 0.765625)"/>
      <use xlink:href="#DejaVuSans-221e" transform="translate(450.566406 -15.640625)scale(0.7)"/>
      <use xlink:href="#DejaVuSans-29" transform="translate(511.611328 0.765625)"/>
      <use xlink:href="#DejaVuSans-22c5" transform="translate(570.107422 0.765625)"/>
      <use xlink:href="#DejaVuSans-28" transform="translate(621.376953 0.765625)"/>
      <use xlink:href="#DejaVuSans-31" transform="translate(660.390625 0.765625)"/>
      <use xlink:href="#DejaVuSans-2212" transform="translate(743.496094 0.765625)"/>
      <use xlink:href="#DejaVuSans-Oblique-71" transform="translate(846.767578 0.765625)"/>
      <use xlink:href="#DejaVuSans-32" transform="translate(914.894036 39.046875)scale(0.7)"/>
      <use xlink:href="#DejaVuSans-29" transform="translate(962.164544 0.765625)"/>
     </g>
    </g>
   </g>
   <g id="line2d_43">
    <path d="M 72 161.816358 
L 72.49043 160.34021 
L 73.634766 157.639569 
L 75.324023 154.229508 
L 77.503711 150.340412 
L 80.064844 146.230062 
L 82.95293 142.0139 
L 86.167969 137.716615 
L 89.655469 133.431544 
L 93.360938 129.233417 
L 97.284375 125.126708 
L 101.371289 121.169919 
L 105.62168 117.36129 
L 110.035547 113.70165 
L 114.612891 110.193542 
L 119.353711 106.840664 
L 124.203516 103.68153 
L 129.216797 100.681472 
L 134.339062 97.874757 
L 139.624805 95.233618 
L 145.019531 92.78786 
L 150.523242 90.536693 
L 156.135937 88.479838 
L 161.912109 86.600811 
L 167.797266 84.921043 
L 173.791406 83.441221 
L 179.894531 82.162416 
L 186.161133 81.077631 
L 192.536719 80.201063 
L 199.021289 79.535009 
L 205.614844 79.082393 
L 212.317383 78.846866 
L 219.074414 78.832156 
L 225.94043 79.040954 
L 232.860937 79.475518 
L 239.781445 80.132228 
L 246.756445 81.017237 
L 253.731445 82.125755 
L 260.706445 83.458338 
L 267.681445 85.016495 
L 274.656445 86.802574 
L 281.576953 88.803005 
L 288.497461 91.034516 
L 295.363477 93.480975 
L 302.229492 96.163666 
L 309.041016 99.063485 
L 315.852539 102.206141 
L 322.60957 105.569241 
L 329.312109 109.152769 
L 336.014648 112.989049 
L 342.662695 117.050278 
L 349.310742 121.373396 
L 355.904297 125.926825 
L 362.497852 130.752351 
L 369.036914 135.814496 
L 375.521484 141.11446 
L 382.006055 146.701796 
L 388.436133 152.534919 
L 394.866211 158.66912 
L 401.241797 165.058737 
L 407.617383 171.765353 
L 413.938477 178.739253 
L 420.205078 185.984551 
L 426.417187 193.506023 
L 432.574805 201.30924 
L 438.67793 209.400745 
L 444.726562 217.788265 
L 450.720703 226.481003 
L 456.660352 235.490021 
L 462.491016 244.740322 
L 468.212695 254.236061 
L 473.825391 263.983931 
L 479.274609 273.892666 
L 484.560352 283.962501 
L 489.682617 294.198199 
L 494.586914 304.494019 
L 499.21875 314.729469 
L 503.578125 324.898972 
L 507.556055 334.734764 
L 511.098047 344.07067 
L 514.149609 352.728801 
L 516.547266 360.182834 
L 518.073047 365.586734 
L 518.4 367.005434 
L 518.4 367.005434 
" clip-path="url(#p09e04c8624)" style="fill: none; stroke: #000000; stroke-opacity: 0.75; stroke-width: 2; stroke-linecap: square"/>
   </g>
   <g id="patch_3">
    <path d="M 72 384.48 
L 72 51.84 
" style="fill: none; stroke: #000000; stroke-width: 0.8; stroke-linejoin: miter; stroke-linecap: square"/>
   </g>
   <g id="patch_4">
    <path d="M 518.4 384.48 
L 518.4 51.84 
" style="fill: none; stroke: #000000; stroke-width: 0.8; stroke-linejoin: miter; stroke-linecap: square"/>
   </g>
   <g id="patch_5">
    <path d="M 72 384.48 
L 518.4 384.48 
" style="fill: none; stroke: #000000; stroke-width: 0.8; stroke-linejoin: miter; stroke-linecap: square"/>
   </g>
   <g id="patch_6">
    <path d="M 72 51.84 
L 518.4 51.84 
" style="fill: none; stroke: #000000; stroke-width: 0.8; stroke-linejoin: miter; stroke-linecap: square"/>
   </g>
   <g id="legend_1">
    <g id="patch_7">
     <path d="M 79 379.48 
L 231.732813 379.48 
Q 233.732813 379.48 233.732813 377.48 
L 233.732813 275.733125 
Q 233.732813 273.733125 231.732813 273.733125 
L 79 273.733125 
Q 77 273.733125 77 275.733125 
L 77 377.48 
Q 77 379.48 79 379.48 
z
" style="fill: #ffffff; opacity: 0.8; stroke: #cccccc; stroke-linejoin: miter"/>
    </g>
    <g id="line2d_44">
     <path d="M 81 281.831563 
L 91 281.831563 
L 101 281.831563 
" style="fill: none; stroke: #000000; stroke-opacity: 0.75; stroke-width: 2; stroke-linecap: square"/>
    </g>
    <g id="text_21">
     <!-- expected -->
     <g transform="translate(109 285.331563)scale(0.1 -0.1)">
      <defs>
       <path id="DejaVuSans-65" d="M 3597 1894 
L 3597 1613 
L 953 1613 
Q 991 1019 1311 708 
Q 1631 397 2203 397 
Q 2534 397 2845 478 
Q 3156 559 3463 722 
L 3463 178 
Q 3153 47 2828 -22 
Q 2503 -91 2169 -91 
Q 1331 -91 842 396 
Q 353 884 353 1716 
Q 353 2575 817 3079 
Q 1281 3584 2069 3584 
Q 2775 3584 3186 3129 
Q 3597 2675 3597 1894 
z
M 3022 2063 
Q 3016 2534 2758 2815 
Q 2500 3097 2075 3097 
Q 1594 3097 1305 2825 
Q 1016 2553 972 2059 
L 3022 2063 
z
" transform="scale(0.015625)"/>
       <path id="DejaVuSans-78" d="M 3513 3500 
L 2247 1797 
L 3578 0 
L 2900 0 
L 1881 1375 
L 863 0 
L 184 0 
L 1544 1831 
L 300 3500 
L 978 3500 
L 1906 2253 
L 2834 3500 
L 3513 3500 
z
" transform="scale(0.015625)"/>
       <path id="DejaVuSans-70" d="M 1159 525 
L 1159 -1331 
L 581 -1331 
L 581 3500 
L 1159 3500 
L 1159 2969 
Q 1341 3281 1617 3432 
Q 1894 3584 2278 3584 
Q 2916 3584 3314 3078 
Q 3713 2572 3713 1747 
Q 3713 922 3314 415 
Q 2916 -91 2278 -91 
Q 1894 -91 1617 61 
Q 1341 213 1159 525 
z
M 3116 1747 
Q 3116 2381 2855 2742 
Q 2594 3103 2138 3103 
Q 1681 3103 1420 2742 
Q 1159 2381 1159 1747 
Q 1159 1113 1420 752 
Q 1681 391 2138 391 
Q 2594 391 2855 752 
Q 3116 1113 3116 1747 
z
" transform="scale(0.015625)"/>
       <path id="DejaVuSans-63" d="M 3122 3366 
L 3122 2828 
Q 2878 2963 2633 3030 
Q 2388 3097 2138 3097 
Q 1578 3097 1268 2742 
Q 959 2388 959 1747 
Q 959 1106 1268 751 
Q 1578 397 2138 397 
Q 2388 397 2633 464 
Q 2878 531 3122 666 
L 3122 134 
Q 2881 22 2623 -34 
Q 2366 -91 2075 -91 
Q 1284 -91 818 406 
Q 353 903 353 1747 
Q 353 2603 823 3093 
Q 1294 3584 2113 3584 
Q 2378 3584 2631 3529 
Q 2884 3475 3122 3366 
z
" transform="scale(0.015625)"/>
       <path id="DejaVuSans-74" d="M 1172 4494 
L 1172 3500 
L 2356 3500 
L 2356 3053 
L 1172 3053 
L 1172 1153 
Q 1172 725 1289 603 
Q 1406 481 1766 481 
L 2356 481 
L 2356 0 
L 1766 0 
Q 1100 0 847 248 
Q 594 497 594 1153 
L 594 3053 
L 172 3053 
L 172 3500 
L 594 3500 
L 594 4494 
L 1172 4494 
z
" transform="scale(0.015625)"/>
       <path id="DejaVuSans-64" d="M 2906 2969 
L 2906 4863 
L 3481 4863 
L 3481 0 
L 2906 0 
L 2906 525 
Q 2725 213 2448 61 
Q 2172 -91 1784 -91 
Q 1150 -91 751 415 
Q 353 922 353 1747 
Q 353 2572 751 3078 
Q 1150 3584 1784 3584 
Q 2172 3584 2448 3432 
Q 2725 3281 2906 2969 
z
M 947 1747 
Q 947 1113 1208 752 
Q 1469 391 1925 391 
Q 2381 391 2643 752 
Q 2906 1113 2906 1747 
Q 2906 2381 2643 2742 
Q 2381 3103 1925 3103 
Q 1469 3103 1208 2742 
Q 947 2381 947 1747 
z
" transform="scale(0.015625)"/>
      </defs>
      <use xlink:href="#DejaVuSans-65"/>
      <use xlink:href="#DejaVuSans-78" x="59.773438"/>
      <use xlink:href="#DejaVuSans-70" x="118.953125"/>
      <use xlink:href="#DejaVuSans-65" x="182.429688"/>
      <use xlink:href="#DejaVuSans-63" x="243.953125"/>
      <use xlink:href="#DejaVuSans-74" x="298.933594"/>
      <use xlink:href="#DejaVuSans-65" x="338.142578"/>
      <use xlink:href="#DejaVuSans-64" x="399.666016"/>
     </g>
    </g>
    <g id="line2d_45">
     <path d="M 81 296.509688 
L 91 296.509688 
L 101 296.509688 
" style="fill: none; stroke: #1f77b4; stroke-linecap: square"/>
    </g>
    <g id="text_22">
     <!-- polynomial degree=4 -->
     <g transform="translate(109 300.009688)scale(0.1 -0.1)">
      <defs>
       <path id="DejaVuSans-79" d="M 2059 -325 
Q 1816 -950 1584 -1140 
Q 1353 -1331 966 -1331 
L 506 -1331 
L 506 -850 
L 844 -850 
Q 1081 -850 1212 -737 
Q 1344 -625 1503 -206 
L 1606 56 
L 191 3500 
L 800 3500 
L 1894 763 
L 2988 3500 
L 3597 3500 
L 2059 -325 
z
" transform="scale(0.015625)"/>
       <path id="DejaVuSans-6e" d="M 3513 2113 
L 3513 0 
L 2938 0 
L 2938 2094 
Q 2938 2591 2744 2837 
Q 2550 3084 2163 3084 
Q 1697 3084 1428 2787 
Q 1159 2491 1159 1978 
L 1159 0 
L 581 0 
L 581 3500 
L 1159 3500 
L 1159 2956 
Q 1366 3272 1645 3428 
Q 1925 3584 2291 3584 
Q 2894 3584 3203 3211 
Q 3513 2838 3513 2113 
z
" transform="scale(0.015625)"/>
       <path id="DejaVuSans-6d" d="M 3328 2828 
Q 3544 3216 3844 3400 
Q 4144 3584 4550 3584 
Q 5097 3584 5394 3201 
Q 5691 2819 5691 2113 
L 5691 0 
L 5113 0 
L 5113 2094 
Q 5113 2597 4934 2840 
Q 4756 3084 4391 3084 
Q 3944 3084 3684 2787 
Q 3425 2491 3425 1978 
L 3425 0 
L 2847 0 
L 2847 2094 
Q 2847 2600 2669 2842 
Q 2491 3084 2119 3084 
Q 1678 3084 1418 2786 
Q 1159 2488 1159 1978 
L 1159 0 
L 581 0 
L 581 3500 
L 1159 3500 
L 1159 2956 
Q 1356 3278 1631 3431 
Q 1906 3584 2284 3584 
Q 2666 3584 2933 3390 
Q 3200 3197 3328 2828 
z
" transform="scale(0.015625)"/>
       <path id="DejaVuSans-69" d="M 603 3500 
L 1178 3500 
L 1178 0 
L 603 0 
L 603 3500 
z
M 603 4863 
L 1178 4863 
L 1178 4134 
L 603 4134 
L 603 4863 
z
" transform="scale(0.015625)"/>
       <path id="DejaVuSans-61" d="M 2194 1759 
Q 1497 1759 1228 1600 
Q 959 1441 959 1056 
Q 959 750 1161 570 
Q 1363 391 1709 391 
Q 2188 391 2477 730 
Q 2766 1069 2766 1631 
L 2766 1759 
L 2194 1759 
z
M 3341 1997 
L 3341 0 
L 2766 0 
L 2766 531 
Q 2569 213 2275 61 
Q 1981 -91 1556 -91 
Q 1019 -91 701 211 
Q 384 513 384 1019 
Q 384 1609 779 1909 
Q 1175 2209 1959 2209 
L 2766 2209 
L 2766 2266 
Q 2766 2663 2505 2880 
Q 2244 3097 1772 3097 
Q 1472 3097 1187 3025 
Q 903 2953 641 2809 
L 641 3341 
Q 956 3463 1253 3523 
Q 1550 3584 1831 3584 
Q 2591 3584 2966 3190 
Q 3341 2797 3341 1997 
z
" transform="scale(0.015625)"/>
       <path id="DejaVuSans-20" transform="scale(0.015625)"/>
       <path id="DejaVuSans-72" d="M 2631 2963 
Q 2534 3019 2420 3045 
Q 2306 3072 2169 3072 
Q 1681 3072 1420 2755 
Q 1159 2438 1159 1844 
L 1159 0 
L 581 0 
L 581 3500 
L 1159 3500 
L 1159 2956 
Q 1341 3275 1631 3429 
Q 1922 3584 2338 3584 
Q 2397 3584 2469 3576 
Q 2541 3569 2628 3553 
L 2631 2963 
z
" transform="scale(0.015625)"/>
       <path id="DejaVuSans-3d" d="M 678 2906 
L 4684 2906 
L 4684 2381 
L 678 2381 
L 678 2906 
z
M 678 1631 
L 4684 1631 
L 4684 1100 
L 678 1100 
L 678 1631 
z
" transform="scale(0.015625)"/>
       <path id="DejaVuSans-34" d="M 2419 4116 
L 825 1625 
L 2419 1625 
L 2419 4116 
z
M 2253 4666 
L 3047 4666 
L 3047 1625 
L 3713 1625 
L 3713 1100 
L 3047 1100 
L 3047 0 
L 2419 0 
L 2419 1100 
L 313 1100 
L 313 1709 
L 2253 4666 
z
" transform="scale(0.015625)"/>
      </defs>
      <use xlink:href="#DejaVuSans-70"/>
      <use xlink:href="#DejaVuSans-6f" x="63.476562"/>
      <use xlink:href="#DejaVuSans-6c" x="124.658203"/>
      <use xlink:href="#DejaVuSans-79" x="152.441406"/>
      <use xlink:href="#DejaVuSans-6e" x="211.621094"/>
      <use xlink:href="#DejaVuSans-6f" x="275"/>
      <use xlink:href="#DejaVuSans-6d" x="336.181641"/>
      <use xlink:href="#DejaVuSans-69" x="433.59375"/>
      <use xlink:href="#DejaVuSans-61" x="461.376953"/>
      <use xlink:href="#DejaVuSans-6c" x="522.65625"/>
      <use xlink:href="#DejaVuSans-20" x="550.439453"/>
      <use xlink:href="#DejaVuSans-64" x="582.226562"/>
      <use xlink:href="#DejaVuSans-65" x="645.703125"/>
      <use xlink:href="#DejaVuSans-67" x="707.226562"/>
      <use xlink:href="#DejaVuSans-72" x="770.703125"/>
      <use xlink:href="#DejaVuSans-65" x="809.566406"/>
      <use xlink:href="#DejaVuSans-65" x="871.089844"/>
      <use xlink:href="#DejaVuSans-3d" x="932.613281"/>
      <use xlink:href="#DejaVuSans-34" x="1016.402344"/>
     </g>
    </g>
    <g id="line2d_46">
     <path d="M 81 311.187813 
L 91 311.187813 
L 101 311.187813 
" style="fill: none; stroke: #ff7f0e; stroke-linecap: square"/>
    </g>
    <g id="text_23">
     <!-- polynomial degree=8 -->
     <g transform="translate(109 314.687813)scale(0.1 -0.1)">
      <defs>
       <path id="DejaVuSans-38" d="M 2034 2216 
Q 1584 2216 1326 1975 
Q 1069 1734 1069 1313 
Q 1069 891 1326 650 
Q 1584 409 2034 409 
Q 2484 409 2743 651 
Q 3003 894 3003 1313 
Q 3003 1734 2745 1975 
Q 2488 2216 2034 2216 
z
M 1403 2484 
Q 997 2584 770 2862 
Q 544 3141 544 3541 
Q 544 4100 942 4425 
Q 1341 4750 2034 4750 
Q 2731 4750 3128 4425 
Q 3525 4100 3525 3541 
Q 3525 3141 3298 2862 
Q 3072 2584 2669 2484 
Q 3125 2378 3379 2068 
Q 3634 1759 3634 1313 
Q 3634 634 3220 271 
Q 2806 -91 2034 -91 
Q 1263 -91 848 271 
Q 434 634 434 1313 
Q 434 1759 690 2068 
Q 947 2378 1403 2484 
z
M 1172 3481 
Q 1172 3119 1398 2916 
Q 1625 2713 2034 2713 
Q 2441 2713 2670 2916 
Q 2900 3119 2900 3481 
Q 2900 3844 2670 4047 
Q 2441 4250 2034 4250 
Q 1625 4250 1398 4047 
Q 1172 3844 1172 3481 
z
" transform="scale(0.015625)"/>
      </defs>
      <use xlink:href="#DejaVuSans-70"/>
      <use xlink:href="#DejaVuSans-6f" x="63.476562"/>
      <use xlink:href="#DejaVuSans-6c" x="124.658203"/>
      <use xlink:href="#DejaVuSans-79" x="152.441406"/>
      <use xlink:href="#DejaVuSans-6e" x="211.621094"/>
      <use xlink:href="#DejaVuSans-6f" x="275"/>
      <use xlink:href="#DejaVuSans-6d" x="336.181641"/>
      <use xlink:href="#DejaVuSans-69" x="433.59375"/>
      <use xlink:href="#DejaVuSans-61" x="461.376953"/>
      <use xlink:href="#DejaVuSans-6c" x="522.65625"/>
      <use xlink:href="#DejaVuSans-20" x="550.439453"/>
      <use xlink:href="#DejaVuSans-64" x="582.226562"/>
      <use xlink:href="#DejaVuSans-65" x="645.703125"/>
      <use xlink:href="#DejaVuSans-67" x="707.226562"/>
      <use xlink:href="#DejaVuSans-72" x="770.703125"/>
      <use xlink:href="#DejaVuSans-65" x="809.566406"/>
      <use xlink:href="#DejaVuSans-65" x="871.089844"/>
      <use xlink:href="#DejaVuSans-3d" x="932.613281"/>
      <use xlink:href="#DejaVuSans-38" x="1016.402344"/>
     </g>
    </g>
    <g id="line2d_47">
     <path d="M 81 325.865938 
L 91 325.865938 
L 101 325.865938 
" style="fill: none; stroke: #2ca02c; stroke-linecap: square"/>
    </g>
    <g id="text_24">
     <!-- polynomial degree=16 -->
     <g transform="translate(109 329.365938)scale(0.1 -0.1)">
      <defs>
       <path id="DejaVuSans-36" d="M 2113 2584 
Q 1688 2584 1439 2293 
Q 1191 2003 1191 1497 
Q 1191 994 1439 701 
Q 1688 409 2113 409 
Q 2538 409 2786 701 
Q 3034 994 3034 1497 
Q 3034 2003 2786 2293 
Q 2538 2584 2113 2584 
z
M 3366 4563 
L 3366 3988 
Q 3128 4100 2886 4159 
Q 2644 4219 2406 4219 
Q 1781 4219 1451 3797 
Q 1122 3375 1075 2522 
Q 1259 2794 1537 2939 
Q 1816 3084 2150 3084 
Q 2853 3084 3261 2657 
Q 3669 2231 3669 1497 
Q 3669 778 3244 343 
Q 2819 -91 2113 -91 
Q 1303 -91 875 529 
Q 447 1150 447 2328 
Q 447 3434 972 4092 
Q 1497 4750 2381 4750 
Q 2619 4750 2861 4703 
Q 3103 4656 3366 4563 
z
" transform="scale(0.015625)"/>
      </defs>
      <use xlink:href="#DejaVuSans-70"/>
      <use xlink:href="#DejaVuSans-6f" x="63.476562"/>
      <use xlink:href="#DejaVuSans-6c" x="124.658203"/>
      <use xlink:href="#DejaVuSans-79" x="152.441406"/>
      <use xlink:href="#DejaVuSans-6e" x="211.621094"/>
      <use xlink:href="#DejaVuSans-6f" x="275"/>
      <use xlink:href="#DejaVuSans-6d" x="336.181641"/>
      <use xlink:href="#DejaVuSans-69" x="433.59375"/>
      <use xlink:href="#DejaVuSans-61" x="461.376953"/>
      <use xlink:href="#DejaVuSans-6c" x="522.65625"/>
      <use xlink:href="#DejaVuSans-20" x="550.439453"/>
      <use xlink:href="#DejaVuSans-64" x="582.226562"/>
      <use xlink:href="#DejaVuSans-65" x="645.703125"/>
      <use xlink:href="#DejaVuSans-67" x="707.226562"/>
      <use xlink:href="#DejaVuSans-72" x="770.703125"/>
      <use xlink:href="#DejaVuSans-65" x="809.566406"/>
      <use xlink:href="#DejaVuSans-65" x="871.089844"/>
      <use xlink:href="#DejaVuSans-3d" x="932.613281"/>
      <use xlink:href="#DejaVuSans-31" x="1016.402344"/>
      <use xlink:href="#DejaVuSans-36" x="1080.025391"/>
     </g>
    </g>
    <g id="line2d_48">
     <path d="M 81 340.544062 
L 91 340.544062 
L 101 340.544062 
" style="fill: none; stroke: #d62728; stroke-linecap: square"/>
    </g>
    <g id="text_25">
     <!-- polynomial degree=32 -->
     <g transform="translate(109 344.044062)scale(0.1 -0.1)">
      <use xlink:href="#DejaVuSans-70"/>
      <use xlink:href="#DejaVuSans-6f" x="63.476562"/>
      <use xlink:href="#DejaVuSans-6c" x="124.658203"/>
      <use xlink:href="#DejaVuSans-79" x="152.441406"/>
      <use xlink:href="#DejaVuSans-6e" x="211.621094"/>
      <use xlink:href="#DejaVuSans-6f" x="275"/>
      <use xlink:href="#DejaVuSans-6d" x="336.181641"/>
      <use xlink:href="#DejaVuSans-69" x="433.59375"/>
      <use xlink:href="#DejaVuSans-61" x="461.376953"/>
      <use xlink:href="#DejaVuSans-6c" x="522.65625"/>
      <use xlink:href="#DejaVuSans-20" x="550.439453"/>
      <use xlink:href="#DejaVuSans-64" x="582.226562"/>
      <use xlink:href="#DejaVuSans-65" x="645.703125"/>
      <use xlink:href="#DejaVuSans-67" x="707.226562"/>
      <use xlink:href="#DejaVuSans-72" x="770.703125"/>
      <use xlink:href="#DejaVuSans-65" x="809.566406"/>
      <use xlink:href="#DejaVuSans-65" x="871.089844"/>
      <use xlink:href="#DejaVuSans-3d" x="932.613281"/>
      <use xlink:href="#DejaVuSans-33" x="1016.402344"/>
      <use xlink:href="#DejaVuSans-32" x="1080.025391"/>
     </g>
    </g>
    <g id="line2d_49">
     <path d="M 81 355.222188 
L 91 355.222188 
L 101 355.222188 
" style="fill: none; stroke: #9467bd; stroke-linecap: square"/>
    </g>
    <g id="text_26">
     <!-- polynomial degree=64 -->
     <g transform="translate(109 358.722188)scale(0.1 -0.1)">
      <use xlink:href="#DejaVuSans-70"/>
      <use xlink:href="#DejaVuSans-6f" x="63.476562"/>
      <use xlink:href="#DejaVuSans-6c" x="124.658203"/>
      <use xlink:href="#DejaVuSans-79" x="152.441406"/>
      <use xlink:href="#DejaVuSans-6e" x="211.621094"/>
      <use xlink:href="#DejaVuSans-6f" x="275"/>
      <use xlink:href="#DejaVuSans-6d" x="336.181641"/>
      <use xlink:href="#DejaVuSans-69" x="433.59375"/>
      <use xlink:href="#DejaVuSans-61" x="461.376953"/>
      <use xlink:href="#DejaVuSans-6c" x="522.65625"/>
      <use xlink:href="#DejaVuSans-20" x="550.439453"/>
      <use xlink:href="#DejaVuSans-64" x="582.226562"/>
      <use xlink:href="#DejaVuSans-65" x="645.703125"/>
      <use xlink:href="#DejaVuSans-67" x="707.226562"/>
      <use xlink:href="#DejaVuSans-72" x="770.703125"/>
      <use xlink:href="#DejaVuSans-65" x="809.566406"/>
      <use xlink:href="#DejaVuSans-65" x="871.089844"/>
      <use xlink:href="#DejaVuSans-3d" x="932.613281"/>
      <use xlink:href="#DejaVuSans-36" x="1016.402344"/>
      <use xlink:href="#DejaVuSans-34" x="1080.025391"/>
     </g>
    </g>
    <g id="line2d_50">
     <path d="M 81 369.900313 
L 91 369.900313 
L 101 369.900313 
" style="fill: none; stroke: #8c564b; stroke-linecap: square"/>
    </g>
    <g id="text_27">
     <!-- polynomial degree=128 -->
     <g transform="translate(109 373.400313)scale(0.1 -0.1)">
      <use xlink:href="#DejaVuSans-70"/>
      <use xlink:href="#DejaVuSans-6f" x="63.476562"/>
      <use xlink:href="#DejaVuSans-6c" x="124.658203"/>
      <use xlink:href="#DejaVuSans-79" x="152.441406"/>
      <use xlink:href="#DejaVuSans-6e" x="211.621094"/>
      <use xlink:href="#DejaVuSans-6f" x="275"/>
      <use xlink:href="#DejaVuSans-6d" x="336.181641"/>
      <use xlink:href="#DejaVuSans-69" x="433.59375"/>
      <use xlink:href="#DejaVuSans-61" x="461.376953"/>
      <use xlink:href="#DejaVuSans-6c" x="522.65625"/>
      <use xlink:href="#DejaVuSans-20" x="550.439453"/>
      <use xlink:href="#DejaVuSans-64" x="582.226562"/>
      <use xlink:href="#DejaVuSans-65" x="645.703125"/>
      <use xlink:href="#DejaVuSans-67" x="707.226562"/>
      <use xlink:href="#DejaVuSans-72" x="770.703125"/>
      <use xlink:href="#DejaVuSans-65" x="809.566406"/>
      <use xlink:href="#DejaVuSans-65" x="871.089844"/>
      <use xlink:href="#DejaVuSans-3d" x="932.613281"/>
      <use xlink:href="#DejaVuSans-31" x="1016.402344"/>
      <use xlink:href="#DejaVuSans-32" x="1080.025391"/>
      <use xlink:href="#DejaVuSans-38" x="1143.648438"/>
     </g>
    </g>
   </g>
  </g>
 </g>
 <defs>
  <clipPath id="p09e04c8624">
   <rect x="72" y="51.84" width="446.4" height="332.64"/>
  </clipPath>
 </defs>
</svg>
